{
  "asset": {
    "generator": "sayduck-gltf-pipeline",
    "version": "2.0"
  },
  "samplers": [
    {
      "magFilter": 9729,
      "minFilter": 9986,
      "wrapS": 10497,
      "wrapT": 10497
    }
  ],
  "images": [
    {
      "name": "metallicRoughness",
      "uri": "roughness_metalness_g.jpg"
    },
    {
      "name": "occlusion",
      "uri": "roughness_metalness_g.jpg"
    }
  ],
  "textures": [
    {
      "name": "metallicRoughness",
      "sampler": 0,
      "source": 0
    },
    {
      "name": "occlusion",
      "sampler": 0,
      "source": 1
    }
  ],
  "materials": [
    {
      "name": "default_material_0",
      "alphaMode": "OPAQUE",
      "doubleSided": false,
      "pbrMetallicRoughness": {
        "baseColorFactor": [
          1,
          1,
          1,
          1
        ],
        "roughnessFactor": 1,
        "metallicFactor": 1,
        "metallicRoughnessTexture": {
          "index": 0
        }
      },
      "emissiveFactor": [
        0,
        0,
        0
      ],
      "extras": {
        "sayduck": {
          "uuid": "18a88eb0-584d-0137-daf2-664368163175"
        }
      },
      "occlusionTexture": {
        "index": 1,
        "strength": 1
      }
    }
  ],
  "buffers": [
    {
      "name": "xBK_ocUkFBAfHCOIYZ_B0fROua4_fixed",
      "byteLength": 840,
      "uri": "roughness_metalness.bin"
    }
  ],
  "bufferViews": [
    {
      "name": "bufferView_0",
      "buffer": 0,
      "byteLength": 288,
      "byteOffset": 0,
      "byteStride": 12,
      "target": 34962
    },
    {
      "name": "bufferView_1",
      "buffer": 0,
      "byteLength": 288,
      "byteOffset": 288,
      "byteStride": 12,
      "target": 34962
    },
    {
      "name": "bufferView_2",
      "buffer": 0,
      "byteLength": 192,
      "byteOffset": 576,
      "byteStride": 8,
      "target": 34962
    },
    {
      "name": "bufferView_3",
      "buffer": 0,
      "byteLength": 72,
      "byteOffset": 768,
      "target": 34963
    }
  ],
  "accessors": [
    {
      "name": "Cube__1_0_positions",
      "componentType": 5126,
      "count": 24,
      "min": [
        -0.5,
        0,
        -0.5
      ],
      "max": [
        0.5,
        1,
        0.5
      ],
      "type": "VEC3",
      "bufferView": 0,
      "byteOffset": 0
    },
    {
      "name": "Cube__1_0_normals",
      "componentType": 5126,
      "count": 24,
      "min": [
        -1,
        -1,
        -1
      ],
      "max": [
        1,
        1,
        1
      ],
      "type": "VEC3",
      "bufferView": 1,
      "byteOffset": 0
    },
    {
      "name": "Cube__1_0_texcoords",
      "componentType": 5126,
      "count": 24,
      "min": [
        0,
        0
      ],
      "max": [
        1,
        1
      ],
      "type": "VEC2",
      "bufferView": 2,
      "byteOffset": 0
    },
    {
      "name": "Cube__1_0_indices",
      "componentType": 5123,
      "count": 36,
      "min": [
        0
      ],
      "max": [
        23
      ],
      "type": "SCALAR",
      "bufferView": 3,
      "byteOffset": 0
    }
  ],
  "meshes": [
    {
      "name": "Cube__1",
      "primitives": [
        {
          "attributes": {
            "POSITION": 0,
            "NORMAL": 1,
            "TEXCOORD_0": 2
          },
          "indices": 3,
          "material": 0,
          "mode": 4
        }
      ]
    }
  ],
  "nodes": [
    {
      "name": "Cube_",
      "mesh": 0,
      "translation": [
        0,
        0,
        0
      ],
      "rotation": [
        0,
        0,
        0,
        1
      ],
      "scale": [
        1,
        1,
        1
      ],
      "extras": {
        "sayduck": {
          "uuid": "83975ab0-5879-0137-6012-62689d7b6f2b"
        }
      }
    }
  ],
  "scenes": [
    {
      "nodes": [
        0
      ]
    }
  ]
}
